<svg width="167" height="51" viewBox="0 0 167 51" fill="none" xmlns="http://www.w3.org/2000/svg">
<rect width="167" height="51" rx="20" fill="#E6E6E6"/>
<path d="M62.5 32.72C62.3533 32.72 62.28 32.6467 62.28 32.5V16.56C62.28 16.4933 62.3 16.44 62.34 16.4C62.38 16.36 62.4333 16.34 62.5 16.34H78.46C78.5267 16.34 78.58 16.36 78.62 16.4C78.6733 16.44 78.7 16.4933 78.7 16.56V32.5C78.7 32.6467 78.62 32.72 78.46 32.72H62.5ZM77.16 31.22V17.82H63.82V31.22H77.16ZM66.76 28.48C66.6133 28.48 66.54 28.4 66.54 28.24V20.7C66.54 20.5533 66.6133 20.48 66.76 20.48H74.22C74.3667 20.48 74.44 20.5533 74.44 20.7V28.24C74.44 28.4 74.3667 28.48 74.22 28.48H66.76ZM72.96 27.12V21.84H68.02V27.12H72.96ZM87.74 33.1C87.6467 33.1 87.5733 33.04 87.52 32.92L87.12 31.88C86.4933 32.1333 85.9933 32.32 85.62 32.44C85.26 32.5733 84.8 32.7133 84.24 32.86C83.9733 32.94 83.7 32.98 83.42 32.98C83.1267 32.98 82.8933 32.8933 82.72 32.72C82.5467 32.5467 82.46 32.3 82.46 31.98V21.44C82.46 21.28 82.5333 21.2 82.68 21.2H88.16C88.3333 21.2 88.42 21.28 88.42 21.44V27.64C88.42 27.8 88.34 27.88 88.18 27.88H83.72V31.28C83.72 31.3867 83.76 31.46 83.84 31.5C83.92 31.54 84.0067 31.5467 84.1 31.52C85.02 31.28 85.88 31 86.68 30.68C86.4 30.04 86.1467 29.5333 85.92 29.16C85.8933 29.12 85.88 29.0733 85.88 29.02C85.88 28.94 85.9267 28.88 86.02 28.84L86.64 28.58C86.68 28.5667 86.7133 28.56 86.74 28.56C86.8333 28.56 86.9067 28.6 86.96 28.68C87.1467 28.9467 87.4333 29.52 87.82 30.4C88.22 31.2667 88.4933 31.9467 88.64 32.44L88.66 32.56C88.66 32.6533 88.6133 32.72 88.52 32.76L87.92 33.06C87.8533 33.0867 87.7933 33.1 87.74 33.1ZM89.54 33.54C89.4733 33.54 89.4133 33.4867 89.36 33.38L88.98 32.68C88.9667 32.64 88.9533 32.5933 88.94 32.54C88.94 32.46 89.0067 32.4067 89.14 32.38C90.5267 32.1267 91.74 31.6 92.78 30.8C92.8467 30.76 92.8933 30.74 92.92 30.74C92.9867 30.74 93.0467 30.7733 93.1 30.84L93.5 31.36C93.54 31.4133 93.56 31.4667 93.56 31.52C93.56 31.5733 93.5267 31.6333 93.46 31.7C92.9133 32.14 92.3333 32.5067 91.72 32.8C91.12 33.0933 90.4333 33.3333 89.66 33.52L89.54 33.54ZM87.28 26.76V25.04H83.7V26.76H87.28ZM87.28 24V22.32H83.7V24H87.28ZM98.94 33.5C98.26 33.3267 97.5933 33.0867 96.94 32.78C96.3 32.4733 95.7133 32.1133 95.18 31.7C95.1 31.6467 95.06 31.5933 95.06 31.54C95.06 31.5 95.0867 31.44 95.14 31.36L95.52 30.86C95.5867 30.78 95.6533 30.74 95.72 30.74C95.76 30.74 95.8067 30.76 95.86 30.8C96.9133 31.56 98.1133 32.0733 99.46 32.34C99.6067 32.3667 99.68 32.42 99.68 32.5C99.68 32.5267 99.66 32.58 99.62 32.66L99.24 33.38C99.1867 33.4733 99.1267 33.52 99.06 33.52L98.94 33.5ZM97.5 29.56V28.36H91.2V29.56H97.5ZM81.9 20.56C81.82 20.56 81.7467 20.5133 81.68 20.42L81.22 19.74C81.1933 19.6867 81.18 19.6467 81.18 19.62C81.18 19.54 81.2267 19.4667 81.32 19.4C82.0267 19.0267 82.6867 18.52 83.3 17.88C83.9133 17.24 84.44 16.54 84.88 15.78C84.9467 15.6733 85.0467 15.62 85.18 15.62H86.1C86.2333 15.62 86.3333 15.6733 86.4 15.78C87.1733 17.0733 88.1333 18.04 89.28 18.68C89.4267 18.76 89.46 18.8667 89.38 19L88.94 19.68C88.8333 19.8133 88.72 19.84 88.6 19.76C88.1733 19.4667 87.8667 19.24 87.68 19.08V19.14V19.76C87.68 19.92 87.6 20 87.44 20H83.9C83.74 20 83.66 19.92 83.66 19.76V19.24C83.1267 19.7333 82.58 20.16 82.02 20.52C81.9667 20.5467 81.9267 20.56 81.9 20.56ZM90.22 30.6C90.06 30.6 89.98 30.52 89.98 30.36V23.24C89.98 23.08 90.06 23 90.22 23H98.48C98.64 23 98.72 23.08 98.72 23.24V30.36C98.72 30.52 98.64 30.6 98.48 30.6H90.22ZM97.5 27.38V26.22H91.2V27.38H97.5ZM87.44 18.9C86.6933 18.22 86.1 17.4933 85.66 16.72C85.26 17.4533 84.7133 18.18 84.02 18.9H87.44ZM97.5 25.24V24.08H91.2V25.24H97.5ZM93.64 18.82V17.34H90.96V18.82H93.64ZM89.34 22.02C89.18 22.02 89.1 21.94 89.1 21.78V21.18C89.1 21.02 89.18 20.94 89.34 20.94H93.58V19.8H90.04C89.88 19.8 89.8 19.72 89.8 19.56V16.6C89.8 16.44 89.88 16.36 90.04 16.36H93.58V15.5C93.58 15.34 93.66 15.26 93.82 15.26H94.62C94.78 15.26 94.86 15.34 94.86 15.5V16.36H98.54C98.7 16.36 98.78 16.44 98.78 16.6V19.56C98.78 19.72 98.7 19.8 98.54 19.8H94.86V20.94H99.42C99.58 20.94 99.66 21.02 99.66 21.18V21.78C99.66 21.94 99.58 22.02 99.42 22.02H89.34ZM97.62 18.82V17.34H94.8V18.82H97.62ZM101.86 25.14C101.7 25.14 101.62 25.06 101.62 24.9V24C101.62 23.84 101.7 23.76 101.86 23.76H109.7V21.7H103.48C103.32 21.7 103.24 21.62 103.24 21.46V20.6C103.24 20.44 103.32 20.36 103.48 20.36H109.7V18.32H102.66C102.5 18.32 102.42 18.24 102.42 18.08V17.18C102.42 17.02 102.5 16.94 102.66 16.94H109.7V15.5C109.7 15.34 109.78 15.26 109.94 15.26H110.96C111.12 15.26 111.2 15.34 111.2 15.5V16.94H118.32C118.48 16.94 118.56 17.02 118.56 17.18V18.08C118.56 18.24 118.48 18.32 118.32 18.32H111.2V20.36H117.6C117.76 20.36 117.84 20.44 117.84 20.6V21.46C117.84 21.62 117.76 21.7 117.6 21.7H111.2V23.76H119.1C119.26 23.76 119.34 23.84 119.34 24V24.9C119.34 25.06 119.26 25.14 119.1 25.14H111.82C112.247 26.34 112.9 27.44 113.78 28.44C114.407 28.1067 115.013 27.7133 115.6 27.26C116.2 26.7933 116.7 26.3267 117.1 25.86C117.14 25.7933 117.193 25.76 117.26 25.76C117.313 25.76 117.367 25.78 117.42 25.82L118.24 26.36C118.32 26.4133 118.36 26.4733 118.36 26.54C118.36 26.5933 118.333 26.6467 118.28 26.7C117.84 27.18 117.293 27.6667 116.64 28.16C116 28.6533 115.373 29.0667 114.76 29.4C116.013 30.5067 117.54 31.3667 119.34 31.98C119.46 32.02 119.52 32.0733 119.52 32.14C119.52 32.1933 119.5 32.2467 119.46 32.3L118.84 33.22C118.787 33.3 118.72 33.34 118.64 33.34L118.52 33.32C116.52 32.5467 114.827 31.46 113.44 30.06C112.067 28.6467 111.053 27.02 110.4 25.18C109.693 26.1133 108.587 27.0333 107.08 27.94V31.58C107.08 31.7667 107.153 31.88 107.3 31.92C107.34 31.9333 107.44 31.94 107.6 31.94C107.853 31.94 108.047 31.9333 108.18 31.92C108.567 31.9067 109.08 31.8467 109.72 31.74C110.4 31.6333 111.033 31.5067 111.62 31.36H111.7C111.847 31.36 111.92 31.44 111.92 31.6V32.48C111.92 32.5733 111.9 32.6333 111.86 32.66C111.833 32.7 111.773 32.7333 111.68 32.76C111.12 32.9067 110.467 33.04 109.72 33.16C109.04 33.2533 108.407 33.32 107.82 33.36C107.62 33.3733 107.42 33.38 107.22 33.38C107.073 33.38 106.867 33.3667 106.6 33.34C105.96 33.26 105.64 32.8467 105.64 32.1V28.74C104.427 29.34 103.307 29.78 102.28 30.06L102.18 30.08C102.1 30.08 102.027 30.0267 101.96 29.92L101.48 29.02C101.453 28.9667 101.44 28.9267 101.44 28.9C101.44 28.82 101.5 28.76 101.62 28.72C103.007 28.4 104.34 27.9133 105.62 27.26C106.9 26.5933 107.913 25.8867 108.66 25.14H101.86ZM122.48 16.14C122.48 15.98 122.56 15.9 122.72 15.9H129.5C129.66 15.9 129.74 15.98 129.74 16.14V19.86C129.74 20.02 129.66 20.1 129.5 20.1H122.72C122.56 20.1 122.48 20.02 122.48 19.86V16.14ZM131.22 16.14C131.22 15.98 131.3 15.9 131.46 15.9H138.28C138.44 15.9 138.52 15.98 138.52 16.14V19.86C138.52 20.02 138.44 20.1 138.28 20.1H131.46C131.3 20.1 131.22 20.02 131.22 19.86V16.14ZM128.48 17.08H123.74V18.98H128.48V17.08ZM137.26 17.08H132.5V18.98H137.26V17.08ZM123.22 21.58C123.22 21.42 123.3 21.34 123.46 21.34H137.5C137.66 21.34 137.74 21.42 137.74 21.58V27.82C137.74 27.98 137.66 28.06 137.5 28.06H131.16V29.62H139.22C139.38 29.62 139.46 29.7 139.46 29.86V30.68C139.46 30.84 139.38 30.92 139.22 30.92H131.16V33.26C131.16 33.42 131.08 33.5 130.92 33.5H130.04C129.88 33.5 129.8 33.42 129.8 33.26V30.92H121.76C121.6 30.92 121.52 30.84 121.52 30.68V29.86C121.52 29.7 121.6 29.62 121.76 29.62H129.8V28.06H123.46C123.3 28.06 123.22 27.98 123.22 27.82V21.58ZM129.8 22.56H124.52V24.1H129.8V22.56ZM136.46 22.56H131.16V24.1H136.46V22.56ZM129.8 25.24H124.52V26.82H129.8V25.24ZM136.46 25.24H131.16V26.82H136.46V25.24Z" fill="#5E5E5E"/>
<path d="M36.7578 16.3828C38.2636 15.0715 40.5059 15.0715 42.0117 16.3828C42.068 16.4318 42.1254 16.4863 42.1895 16.5488L42.4072 16.7646L42.6211 16.9814C42.6833 17.0454 42.7374 17.1029 42.7861 17.1592C44.0886 18.6624 44.0885 20.8942 42.7861 22.3975C42.6886 22.51 42.5704 22.6284 42.4072 22.792L32.0371 33.1914C31.4909 33.7392 31.0923 34.1504 30.5918 34.4346C30.0911 34.7187 29.5328 34.8499 28.7822 35.0381L26.668 35.5684C26.1594 35.6959 25.6673 35.8219 25.2676 35.8613C24.8555 35.9019 24.2631 35.8813 23.7939 35.4131C23.3248 34.9445 23.3027 34.3517 23.3428 33.9395C23.3817 33.5396 23.5079 33.047 23.6348 32.5381L24.167 30.4033C24.3536 29.6547 24.4833 29.0985 24.7656 28.5986C25.0479 28.0988 25.4572 27.7005 26.002 27.1543L36.3623 16.7646C36.5264 16.6001 36.6451 16.481 36.7578 16.3828Z" stroke="#5E5E5E" stroke-width="2"/>
<path opacity="0.7" d="M35 18.1588L41 24.1755" stroke="#5E5E5E" stroke-width="2.2"/>
</svg>
