<svg width="26" height="24" viewBox="0 0 26 24" fill="none" xmlns="http://www.w3.org/2000/svg">
<mask id="mask0_361_1214" style="mask-type:alpha" maskUnits="userSpaceOnUse" x="3" y="3" width="19" height="19">
<circle cx="12.5" cy="12.5" r="9.5" fill="#D9D9D9"/>
</mask>
<g mask="url(#mask0_361_1214)">
<path d="M21.8079 5.7477C21.6711 5.55679 21.5279 5.37009 21.3763 5.1869C19.2671 2.63125 16.0727 1 12.5 1C8.92799 1 5.73292 2.63125 3.62371 5.18685C3.4721 5.37005 3.32888 5.55674 3.19273 5.74766C1.8121 7.64493 1 9.97737 1 12.5C1 15.0297 1.8156 17.3733 3.20256 19.2706C3.34295 19.465 3.49033 19.6552 3.64478 19.8391C5.75471 22.3793 8.93855 24 12.5 24C16.0797 24 19.2748 22.3646 21.3833 19.8026C21.5384 19.6194 21.6858 19.4292 21.8227 19.2347C23.1949 17.3411 24 15.0156 24 12.5C24 9.97737 23.1879 7.64493 21.8079 5.7477ZM22.1891 12.1392H18.3286C18.3005 10.6764 18.1026 9.28948 17.7671 8.0415C18.7175 7.71721 19.5906 7.30663 20.3627 6.82578C21.4542 8.32927 22.1154 10.1613 22.1891 12.1392ZM12.8587 2.8825C14.5376 3.11555 16.0229 4.9538 16.87 7.56699C15.6361 7.91864 14.2828 8.1243 12.8587 8.1552V2.8825ZM12.1399 2.8825V8.1552C10.7157 8.1243 9.36248 7.91864 8.12852 7.56699C8.97574 4.95384 10.461 3.11555 12.1399 2.8825ZM12.1399 8.87328V12.1392H7.38874C7.41682 10.7572 7.60846 9.4397 7.92709 8.25277C9.22493 8.62549 10.6449 8.84309 12.1399 8.87328ZM12.1399 12.858V16.1239C10.647 16.1597 9.22771 16.3815 7.93059 16.7571C7.60981 15.5674 7.41749 14.2449 7.3887 12.858H12.1399ZM12.1399 16.842V22.1147C10.4645 21.8823 8.98131 20.0511 8.13341 17.4456C9.38354 17.0834 10.7361 16.8778 12.1399 16.842ZM12.8587 22.1147V16.8406C14.2828 16.8659 15.6375 17.0694 16.8728 17.4189C16.0264 20.0385 14.5397 21.8817 12.8587 22.1147ZM12.8587 16.1218V12.858H17.6099C17.5818 14.2337 17.3916 15.547 17.0757 16.7297C15.7765 16.3605 14.3544 16.1471 12.8587 16.1218ZM12.8587 12.1392V8.87328C14.3537 8.84309 15.7737 8.62621 17.0722 8.25349C17.3902 9.4397 17.5818 10.7579 17.6099 12.1392H12.8587ZM19.9247 6.26498C19.2214 6.69385 18.4269 7.06023 17.5635 7.35505C16.9697 5.51604 16.0691 4.03083 14.9847 3.12256C16.943 3.64127 18.6613 4.75587 19.9247 6.26498ZM10.0138 3.12256C8.92939 4.03151 8.02884 5.51604 7.43506 7.35433C6.5731 7.05951 5.77785 6.69385 5.07527 6.26498C6.3387 4.75659 8.05556 3.64199 10.0138 3.12256ZM4.63728 6.82583C5.4094 7.30663 6.28182 7.71654 7.23152 8.04155C6.896 9.28952 6.69807 10.6765 6.66999 12.1393H2.81094C2.88461 10.1613 3.54653 8.32927 4.63728 6.82583ZM2.81094 12.858H6.66999C6.69807 14.3264 6.89743 15.719 7.23574 16.9712C6.28816 17.2968 5.4178 17.706 4.64784 18.1854C3.54932 16.677 2.88393 14.8408 2.81094 12.858ZM5.09351 18.7533C5.80664 18.3174 6.59767 17.9538 7.44207 17.6618C8.03589 19.4938 8.93572 20.9727 10.0181 21.8774C8.06819 21.3608 6.35554 20.2532 5.09351 18.7533ZM14.9805 21.8774C16.0699 20.9678 16.9732 19.4769 17.5671 17.6302C18.4332 17.9243 19.2313 18.2914 19.936 18.721C18.6684 20.2371 16.9445 21.3566 14.9805 21.8774ZM20.3775 18.1567C19.6018 17.6745 18.7252 17.2645 17.7713 16.9409C18.104 15.6965 18.3005 14.3151 18.3286 12.8579H22.1891C22.1168 14.8296 21.4619 16.6525 20.3775 18.1567Z" fill="#8B8C8B"/>
</g>
<circle cx="12.5" cy="12.5" r="10.5" stroke="#5E5E5E" stroke-width="2"/>
</svg>
