<svg width="23" height="23" viewBox="0 0 23 23" fill="none" xmlns="http://www.w3.org/2000/svg">
<path d="M14.4277 1.98389C15.9335 0.672557 18.1758 0.672558 19.6816 1.98389C19.7379 2.03289 19.7954 2.08734 19.8594 2.1499L20.0771 2.36572L20.291 2.58252C20.3532 2.64651 20.4073 2.70401 20.4561 2.76025C21.7585 4.26352 21.7584 6.49523 20.4561 7.99854C20.3586 8.11107 20.2403 8.22945 20.0771 8.39307L9.70703 18.7925C9.16079 19.3403 8.76226 19.7515 8.26172 20.0356C7.76103 20.3198 7.20275 20.451 6.45215 20.6392L4.33789 21.1694C3.82929 21.2969 3.33721 21.423 2.9375 21.4624C2.52539 21.503 1.93299 21.4824 1.46387 21.0142C0.994693 20.5456 0.972638 19.9528 1.0127 19.5405C1.05159 19.1407 1.17782 18.648 1.30469 18.1392L1.83691 16.0044C2.02355 15.2558 2.15323 14.6995 2.43555 14.1997C2.71785 13.6999 3.12715 13.3016 3.67188 12.7554L14.0322 2.36572C14.1964 2.20114 14.315 2.08208 14.4277 1.98389Z" stroke="#165892" stroke-width="2"/>
<path opacity="0.7" d="M12.6699 3.75989L18.6699 9.7766" stroke="#165892" stroke-width="2.2"/>
</svg>
