<svg width="406" height="138" viewBox="0 0 406 138" fill="none" xmlns="http://www.w3.org/2000/svg">
<path d="M157.327 129.386C152.317 129.386 147.862 129.267 144.357 128.891C132.654 127.683 126.931 117.207 126.317 116.019C126.238 115.861 126.159 115.683 126.079 115.524C125.941 115.207 122.772 107.663 118.456 93.5835C115.921 85.3063 117.881 79.8607 119.961 76.7518C124.238 70.3558 131.683 69.5043 132.535 69.4251C132.753 69.4053 132.971 69.3855 133.188 69.3855H154.159C155.98 69.3657 160.436 68.6528 162.278 66.6132C162.812 66.0389 163.386 65.0884 163.208 62.8904C162.654 55.9003 156.139 54.8508 153.941 54.6924H114.495C111.921 54.6924 105.05 55.5241 101.565 59.7419C95.1883 67.5043 76.6536 91.3657 76.4754 91.6033C74.9902 93.5043 72.6734 94.5538 70.2576 94.336C67.8615 94.138 65.7229 92.7123 64.5942 90.5934C64.4358 90.2766 47.8615 59.128 39.8219 45.5439C35.0298 37.4448 31.505 35.7221 30.7327 35.4448H7.10892C3.18812 35.4448 0 32.2567 0 28.3359C0 24.4151 3.18812 21.227 7.10892 21.227H31.2278C34.1585 21.227 42.7922 22.7121 52.0397 38.3161C57.4456 47.4646 66.3368 63.8211 71.9605 74.2766C78.0001 66.534 86.5348 55.6627 90.5744 50.7518C99.0497 40.4349 113.089 40.4943 114.654 40.5141H154.139C154.139 40.5141 154.317 40.5141 154.396 40.5141C161.782 40.7914 176.06 45.6033 177.367 61.7815C177.822 67.4647 176.198 72.4944 172.693 76.2964C166.119 83.4251 155.347 83.6231 154.139 83.6231H133.683C133.149 83.7419 132.119 84.138 131.743 84.7122C131.367 85.3063 131.248 86.8707 132.04 89.4647C135.604 101.108 138.376 108.079 139.01 109.683C139.525 110.514 142.099 114.415 145.802 114.792C152.159 115.445 163.545 115.188 174.535 114.91L181.743 114.752C183.684 114.712 188.198 114.316 188.377 111.584V18.4349C188.159 16.4151 187.307 15.3458 185.842 15.3458H84.0794C81.4457 15.3458 80.614 15.8408 80.4754 18.2171V33.326C80.4754 37.2468 77.2873 40.4349 73.3665 40.4349C69.4457 40.4349 66.2575 37.2468 66.2575 33.326V18.1577C66.2377 17.2666 66.317 11.5636 70.9506 6.79131C74.5942 3.02892 79.8021 1.12793 86.416 1.12793H185.862C197.446 1.12793 202.198 11.0685 202.594 17.7418C202.594 17.8804 202.594 18.0191 202.594 18.1379V111.623C202.614 112.494 202.535 118.059 197.981 122.831C194.258 126.732 188.891 128.772 182.02 128.91L174.852 129.069C168.674 129.207 162.654 129.366 157.287 129.366L157.327 129.386ZM188.396 111.564C188.396 111.742 188.396 111.841 188.396 111.841V111.564Z" fill="#003D73"/>
<path d="M310.377 63.3466V67.8812H290.476C296.753 71.0297 302.08 74.1585 306.437 77.307L302.773 81.0496C300.932 79.4852 298.852 78.0001 296.496 76.4159C282.872 77.8218 265.09 78.9506 242.912 79.8218L241.862 75.109C242.912 75.0298 243.783 74.8515 244.397 74.4951C247.446 72.8317 250.951 70.6535 254.773 67.8614H233.05V63.3268H310.357L310.377 63.3466ZM234.892 29.8416V25.9208H251.13V22.2574H237.961V18.1584H251.13V14.9306H256.535V18.1584H269.545V22.2574H256.535V25.9208H272.674V29.8416H263.427V32.2772C263.427 33.1485 263.941 33.5841 265.09 33.5841H272.08V36.6336H263.446C260.654 36.6336 259.248 35.7624 259.248 34.099V29.8218H249.644C247.545 34.0198 243.011 37.4059 236.021 39.8614L234.199 36.2772C239.862 34.6138 243.625 32.4356 245.367 29.8218H234.892V29.8416ZM253.209 5.22764V0.791992H259.05V5.24745H269.427V10.3168H259.05V13.9801H253.209V10.3168H234.357V5.24745H253.209V5.22764ZM251.288 39.3465V34.4554H256.357V39.3465H267.011V42.8317H256.357V46.9307L270.06 46.4158V50.2574C259.941 50.7723 248.417 51.3069 235.407 51.6634L234.892 47.5644C240.654 47.3861 246.139 47.3069 251.288 47.1287V42.8515H240.476V39.3663H251.288V39.3465ZM302.258 55.0495V59.1485H241.347V55.0495H302.258ZM250.773 75.208C266.575 74.5941 279.922 73.802 290.833 72.9307C288.734 71.703 286.555 70.4951 284.377 69.3466L285.941 67.8614H261.862C257.842 70.8317 254.179 73.2674 250.773 75.1882V75.208ZM300.595 50.7723C299.367 49.802 298.496 48.1584 297.803 45.802C297.189 43.1881 296.932 40.1386 296.932 36.5544C296.932 33.2475 297.011 29.4059 297.288 25.1287H289.427C289.248 30.0198 288.555 34.3762 287.149 38.2178C289.763 39.9604 292.219 42.0594 294.654 44.3168L290.991 47.901C289.07 45.9802 287.149 44.2376 285.149 42.6733C282.971 46.6931 280.001 49.9208 276.238 52.5347L272.219 48.9505C276.06 46.4158 278.932 43.2871 280.852 39.5247C278.417 37.9604 275.961 36.5544 273.347 35.2475L276.219 31.9406C278.318 32.8119 280.496 33.9406 282.595 35.2475C283.545 32.099 284.08 28.792 284.159 25.1287H274.555V20.2376H284.159V15.1683H289.387V20.2376H302.654C302.14 26.0792 301.862 31.5841 301.862 36.6336C301.862 39.604 302.041 41.9604 302.377 43.703C302.892 45.4455 303.427 46.3168 304.12 46.4951C305.07 46.3168 305.783 45.4455 306.298 43.8812C306.734 42.396 307.09 40.1188 307.427 37.1683L311.783 39.0891C310.991 44.5941 309.942 48.2574 308.555 50.1782C307.506 51.5842 306.12 52.2772 304.536 52.4555C303.13 52.4555 301.743 51.8416 300.516 50.7921L300.595 50.7723ZM290.476 0.791992V5.24745H309.229V10.3168H290.476V13.9801H284.635V10.3168H274.159V5.24745H284.635V0.791992H290.476Z" fill="#727171"/>
<path d="M405.051 12.9109H341.268V36.4753C341.011 54.7922 338.12 69.3665 332.536 80.3764L327.902 76.1784C332.437 66.7526 334.892 53.4852 335.149 36.4753V7.24754H367.347C366.298 4.97031 365.07 2.9703 363.763 1.04951L370.041 0C371.268 2.17822 372.476 4.61387 373.704 7.24754H405.031V12.9109H405.051ZM376.516 76.1784L371.288 78.4556C370.496 76.0199 369.724 73.8219 368.932 71.7427C362.654 74.0991 355.585 76.1982 347.545 78.119L345.625 72.5348C347.031 72.0991 347.803 71.4061 347.803 70.4358V23.0297H357.664C356.793 20.5941 355.823 18.3169 354.872 16.3169L360.971 15.2674C361.922 17.5446 362.892 20.1585 363.763 23.0297H373.625V53.5645H353.545V71.01C358.615 69.6041 363.05 68.2179 366.991 66.7328C365.684 63.5843 364.377 60.713 362.971 58.0991L368.298 56.3565C371.447 62.4556 374.14 69.0892 376.496 76.1586L376.516 76.1784ZM367.961 28.4555H353.565V35.604H367.961V28.4555ZM353.565 48.1783H367.961V40.7525H353.565V48.1783ZM403.744 20.8713V25.8416C401.466 32.0397 398.853 38.4951 395.803 45.1288C400.872 51.6833 403.565 57.6041 404.001 63.01C403.922 66.8516 403.13 69.7229 401.565 71.4655C399.387 73.5645 395.546 74.6932 390.14 74.7724L388.219 68.9308C389.526 69.109 390.575 69.1882 391.447 69.1882C394.06 69.01 395.803 68.4952 396.674 67.6239C397.546 66.7526 398.08 65.1882 398.08 62.9902C398.08 57.9209 395.288 52.2575 389.783 45.9803C393.189 38.8318 395.803 32.4555 397.724 26.6931H385.427V80.713H379.664V20.8515H403.744V20.8713Z" fill="#727171"/>
<path d="M265.327 96.099C267.763 98.099 269.267 100.97 269.901 104.752H265.921C265.386 102.119 264.218 100.139 262.416 98.7128C260.515 97.2079 258.04 96.4752 254.97 96.4752C251.168 96.4752 248.198 97.7822 245.98 100.455C243.743 103.089 242.673 106.634 242.673 111.109C242.673 115.584 243.743 118.951 245.881 121.465C248.159 124.139 251.564 125.505 256.099 125.505C258 125.505 259.802 125.208 261.545 124.733C263.248 124.238 264.713 123.564 265.921 122.792V113.941H255.03V110.495H269.862V124.693C268.198 126.059 266.159 127.069 263.782 127.861C261.248 128.634 258.574 129.03 255.703 129.03C250.198 129.03 245.921 127.287 242.911 123.782C240.099 120.515 238.673 116.297 238.673 111.129C238.673 105.96 240.04 101.743 242.852 98.3762C245.822 94.7326 249.861 92.9307 254.97 92.9307C259.307 92.9307 262.753 93.9604 265.327 96.099Z" fill="#727171"/>
<path d="M296.159 105.347C297.624 106.99 298.396 109.287 298.396 112.198V128.356H294.753V124.119C293.783 125.485 292.476 126.594 290.911 127.485C289.07 128.515 286.971 129.05 284.634 129.05C282.099 129.05 280.119 128.416 278.594 127.149C277.03 125.842 276.258 124.139 276.258 122.099C276.258 119.228 277.367 117.089 279.703 115.624C281.743 114.257 284.674 113.525 288.456 113.485L294.495 113.386V112.079C294.495 107.842 292.297 105.762 287.921 105.762C286.08 105.762 284.555 106.099 283.406 106.891C282.099 107.663 281.268 108.891 280.872 110.495L277.03 110.198C277.565 107.564 278.872 105.584 280.931 104.317C282.773 103.148 285.169 102.574 288.179 102.574C291.783 102.574 294.396 103.505 296.159 105.386V105.347ZM288.713 116.396C283.07 116.495 280.238 118.337 280.238 122C280.238 123.168 280.674 124.099 281.644 124.871C282.614 125.604 283.882 125.98 285.446 125.98C287.822 125.98 289.921 125.208 291.763 123.644C293.565 122.139 294.495 120.376 294.495 118.436V116.297L288.713 116.396Z" fill="#727171"/>
<path d="M310.277 92.9307V128.337H306.436V92.9307H310.277Z" fill="#727171"/>
<path d="M322.931 92.9307V128.337H319.09V92.9307H322.931Z" fill="#727171"/>
<path d="M350.456 106.594C352.298 109.03 353.268 112.475 353.367 116.851H333.525C333.723 119.663 334.456 121.861 335.803 123.426C337.169 124.99 339.07 125.762 341.446 125.762C343.486 125.762 345.189 125.228 346.456 124.198C347.525 123.327 348.357 122 348.991 120.257H352.872C352.298 122.693 351.169 124.633 349.466 126.198C347.367 128.039 344.694 129.01 341.446 129.01C337.842 129.01 334.931 127.802 332.793 125.465C330.555 123.03 329.486 119.822 329.486 115.742C329.486 112.039 330.516 108.93 332.654 106.455C334.793 103.822 337.664 102.515 341.308 102.515C345.347 102.515 348.417 103.881 350.456 106.594ZM336.001 107.96C334.634 109.426 333.862 111.366 333.624 113.841H349.347C348.852 108.435 346.179 105.762 341.426 105.762C339.189 105.762 337.387 106.495 336.021 107.96H336.001Z" fill="#727171"/>
<path d="M373.664 103.109V106.99C372.396 106.594 371.129 106.455 369.921 106.455C367.98 106.455 366.317 107.287 365.01 109.03C363.644 110.673 363.01 112.673 363.01 115.01V128.336H359.168V103.188H363.01V107.564C363.683 106.099 364.574 104.93 365.644 104.119C366.951 103.049 368.475 102.515 370.218 102.515C371.584 102.515 372.753 102.713 373.664 103.089V103.109Z" fill="#727171"/>
<path d="M379.604 103.208L387.288 123.05L394.733 103.208H399.01L385.248 138H381.01L385.347 127.782L375.367 103.208H379.604Z" fill="#727171"/>
</svg>
