<svg width="40" height="40" viewBox="0 0 40 40" fill="none" xmlns="http://www.w3.org/2000/svg">
<circle cx="20" cy="20" r="19" fill="#EBECEB" stroke="#50ADE8" stroke-width="2"/>
<path d="M22.3313 22.1231L18.954 27.2092L24.0401 30.5865" stroke="#165892" stroke-width="3" stroke-linecap="round"/>
<path d="M14.5273 23.0042C13.6958 21.564 13.3627 19.8895 13.5798 18.2407C13.7969 16.5918 14.552 15.0606 15.728 13.8847C16.9039 12.7087 18.4351 11.9536 20.084 11.7365C21.7328 11.5194 23.4073 11.8525 24.8475 12.684C26.2878 13.5156 27.4135 14.7991 28.0499 16.3356C28.6864 17.8721 28.798 19.5757 28.3676 21.1821C27.9371 22.7886 26.9886 24.2081 25.6692 25.2205C24.3498 26.2329 22.7332 26.7817 21.0701 26.7817" stroke="#165892" stroke-width="3" stroke-linecap="round"/>
</svg>
