<svg width="80" height="80" viewBox="0 0 80 80" fill="none" xmlns="http://www.w3.org/2000/svg">
<circle cx="40" cy="40" r="38" fill="#50ADE8" stroke="#D5D5D5" stroke-width="4"/>
<path d="M56.3102 53.5153C57.6343 54.8396 57.6343 56.986 56.3102 58.3103C54.9859 59.6347 52.8389 59.6352 51.5144 58.311L22.3974 29.194C21.073 27.8696 21.073 25.7219 22.3974 24.3975C23.7218 23.0734 25.8688 23.0739 27.1931 24.3982L56.3102 53.5153Z" fill="#F1F9FF"/>
<path d="M22.6898 53.5153C21.3657 54.8396 21.3657 56.986 22.6898 58.3103C24.0141 59.6347 26.1611 59.6352 27.4856 58.311L56.6026 29.194C57.927 27.8696 57.927 25.7219 56.6026 24.3975C55.2782 23.0734 53.1312 23.0739 51.8069 24.3982L22.6898 53.5153Z" fill="#F1F9FF"/>
</svg>
