<svg width="80" height="80" viewBox="0 0 80 80" fill="none" xmlns="http://www.w3.org/2000/svg">
<circle cx="40" cy="40" r="38" fill="#EBECEB" stroke="#D5D5D5" stroke-width="4"/>
<path d="M56.3122 53.5153C57.6362 54.8396 57.6362 56.986 56.3122 58.3103C54.9879 59.6347 52.8408 59.6352 51.5164 58.311L22.3993 29.194C21.075 27.8696 21.075 25.7219 22.3993 24.3975C23.7237 23.0734 25.8708 23.0739 27.1951 24.3982L56.3122 53.5153Z" fill="#165892"/>
<path d="M22.6917 53.5153C21.3677 54.8396 21.3677 56.986 22.6917 58.3103C24.0161 59.6347 26.1631 59.6352 27.4875 58.311L56.6046 29.194C57.929 27.8696 57.929 25.7219 56.6046 24.3975C55.2802 23.0734 53.1331 23.0739 51.8088 24.3982L22.6917 53.5153Z" fill="#165892"/>
</svg>
